<svg xmlns="http://www.w3.org/2000/svg" xmlns:xlink="http://www.w3.org/1999/xlink" x="0px" y="0px" viewBox="0 0 100 100" style="enable-background:new 0 0 100 100;" xml:space="preserve" width="160"  height="160" ><g fill="#666666">	<path d="M22.5,21.6c0.5,0,1,0.4,1,1c0,0.5-0.4,1-1,1s-1-0.4-1-1S21.9,21.6,22.5,21.6z M77.5,76.6c0.5,0,1,0.4,1,1c0,0.5-0.4,1-1,1  c-0.5,0-1-0.4-1-1C76.5,77.1,77,76.6,77.5,76.6z M77.5,17.7c0.5,0,1,0.4,1,1c0,0.5-0.4,1-1,1c-0.5,0-1-0.4-1-1  C76.5,18.1,77,17.7,77.5,17.7z M18.5,76.6c0.5,0,1,0.4,1,1c0,0.5-0.4,1-1,1c-0.5,0-1-0.4-1-1C17.6,77.1,18,76.6,18.5,76.6z   M18.5,17.7c0.5,0,1,0.4,1,1c0,0.5-0.4,1-1,1c-0.5,0-1-0.4-1-1C17.6,18.1,18,17.7,18.5,17.7z M77.5,72.7c0.5,0,1,0.4,1,1  c0,0.5-0.4,1-1,1c-0.5,0-1-0.4-1-1C76.5,73.2,77,72.7,77.5,72.7z M77.5,13.7c0.5,0,1,0.4,1,1c0,0.5-0.4,1-1,1c-0.5,0-1-0.4-1-1  C76.5,14.2,77,13.7,77.5,13.7z M18.5,72.7c0.5,0,1,0.4,1,1c0,0.5-0.4,1-1,1c-0.5,0-1-0.4-1-1C17.6,73.2,18,72.7,18.5,72.7z   M17.7,15.3c0.5-0.4,1-0.9,1.5-1.3c0.2,0.2,0.4,0.4,0.4,0.8c0,0.5-0.4,1-1,1C18.2,15.7,17.9,15.5,17.7,15.3z M77.5,68.8  c0.5,0,1,0.4,1,1c0,0.5-0.4,1-1,1c-0.5,0-1-0.4-1-1C76.5,69.2,77,68.8,77.5,68.8z M76.5,10.7c0.5,0.3,0.9,0.6,1.4,1  c-0.1,0.1-0.3,0.1-0.4,0.1C77,11.8,76.5,11.3,76.5,10.7C76.5,10.8,76.5,10.7,76.5,10.7L76.5,10.7z M18.5,68.8c0.5,0,1,0.4,1,1  c0,0.5-0.4,1-1,1c-0.5,0-1-0.4-1-1C17.6,69.2,18,68.8,18.5,68.8z M77.5,64.8c0.5,0,1,0.4,1,1c0,0.5-0.4,1-1,1c-0.5,0-1-0.4-1-1  C76.5,65.3,77,64.8,77.5,64.8z M18.5,64.8c0.5,0,1,0.4,1,1c0,0.5-0.4,1-1,1c-0.5,0-1-0.4-1-1C17.6,65.3,18,64.8,18.5,64.8z   M77.5,60.9c0.5,0,1,0.4,1,1c0,0.5-0.4,1-1,1c-0.5,0-1-0.4-1-1S77,60.9,77.5,60.9z M18.5,60.9c0.5,0,1,0.4,1,1c0,0.5-0.4,1-1,1  c-0.5,0-1-0.4-1-1S18,60.9,18.5,60.9z M77.5,57c0.5,0,1,0.4,1,1s-0.4,1-1,1c-0.5,0-1-0.4-1-1C76.5,57.4,77,57,77.5,57z M18.5,57  c0.5,0,1,0.4,1,1s-0.4,1-1,1c-0.5,0-1-0.4-1-1C17.6,57.4,18,57,18.5,57z M77.5,53c0.5,0,1,0.4,1,1c0,0.5-0.4,1-1,1  c-0.5,0-1-0.4-1-1C76.5,53.5,77,53,77.5,53z M18.5,53c0.5,0,1,0.4,1,1c0,0.5-0.4,1-1,1c-0.5,0-1-0.4-1-1C17.6,53.5,18,53,18.5,53z   M77.5,49.1c0.5,0,1,0.4,1,1c0,0.5-0.4,1-1,1c-0.5,0-1-0.4-1-1C76.5,49.6,77,49.1,77.5,49.1z M18.5,49.1c0.5,0,1,0.4,1,1  c0,0.5-0.4,1-1,1c-0.5,0-1-0.4-1-1C17.6,49.6,18,49.1,18.5,49.1z M77.5,45.2c0.5,0,1,0.4,1,1c0,0.5-0.4,1-1,1c-0.5,0-1-0.4-1-1  C76.5,45.6,77,45.2,77.5,45.2z M18.5,45.2c0.5,0,1,0.4,1,1c0,0.5-0.4,1-1,1c-0.5,0-1-0.4-1-1C17.6,45.6,18,45.2,18.5,45.2z   M77.5,41.2c0.5,0,1,0.4,1,1c0,0.5-0.4,1-1,1c-0.5,0-1-0.4-1-1C76.5,41.7,77,41.2,77.5,41.2z M18.5,41.2c0.5,0,1,0.4,1,1  c0,0.5-0.4,1-1,1c-0.5,0-1-0.4-1-1C17.6,41.7,18,41.2,18.5,41.2z M77.5,37.3c0.5,0,1,0.4,1,1s-0.4,1-1,1c-0.5,0-1-0.4-1-1  C76.5,37.7,77,37.3,77.5,37.3z M18.5,37.3c0.5,0,1,0.4,1,1s-0.4,1-1,1c-0.5,0-1-0.4-1-1C17.6,37.7,18,37.3,18.5,37.3z M77.5,33.4  c0.5,0,1,0.4,1,1c0,0.5-0.4,1-1,1c-0.5,0-1-0.4-1-1C76.5,33.8,77,33.4,77.5,33.4z M18.5,33.4c0.5,0,1,0.4,1,1c0,0.5-0.4,1-1,1  c-0.5,0-1-0.4-1-1C17.6,33.8,18,33.4,18.5,33.4z M77.9,88.5c-0.5,0.3-0.9,0.7-1.4,1c0,0,0-0.1,0-0.1c0-0.5,0.4-1,1-1  C77.7,88.4,77.8,88.5,77.9,88.5L77.9,88.5z M77.5,29.5c0.5,0,1,0.4,1,1c0,0.5-0.4,1-1,1c-0.5,0-1-0.4-1-1  C76.5,29.9,77,29.5,77.5,29.5z M18.5,29.5c0.5,0,1,0.4,1,1c0,0.5-0.4,1-1,1c-0.5,0-1-0.4-1-1C17.6,29.9,18,29.5,18.5,29.5z   M77.5,84.5c0.5,0,1,0.4,1,1c0,0.5-0.4,1-1,1c-0.5,0-1-0.4-1-1C76.5,84.9,77,84.5,77.5,84.5z M77.5,25.5c0.5,0,1,0.4,1,1  c0,0.5-0.4,1-1,1c-0.5,0-1-0.4-1-1C76.5,26,77,25.5,77.5,25.5z M19.2,86.2c-0.5-0.4-1-0.8-1.5-1.3c0.2-0.3,0.5-0.4,0.8-0.4  c0.5,0,1,0.4,1,1C19.5,85.8,19.4,86.1,19.2,86.2z M18.5,25.5c0.5,0,1,0.4,1,1c0,0.5-0.4,1-1,1c-0.5,0-1-0.4-1-1  C17.6,26,18,25.5,18.5,25.5z M77.5,80.6c0.5,0,1,0.4,1,1c0,0.5-0.4,1-1,1c-0.5,0-1-0.4-1-1C76.5,81,77,80.6,77.5,80.6z M77.5,21.6  c0.5,0,1,0.4,1,1c0,0.5-0.4,1-1,1c-0.5,0-1-0.4-1-1S77,21.6,77.5,21.6z M18.5,80.6c0.5,0,1,0.4,1,1c0,0.5-0.4,1-1,1  c-0.5,0-1-0.4-1-1C17.6,81,18,80.6,18.5,80.6z M18.5,21.6c0.5,0,1,0.4,1,1c0,0.5-0.4,1-1,1c-0.5,0-1-0.4-1-1S18,21.6,18.5,21.6z   M73.6,76.6c0.5,0,1,0.4,1,1c0,0.5-0.4,1-1,1c-0.5,0-1-0.4-1-1C72.6,77.1,73,76.6,73.6,76.6z M73.6,17.7c0.5,0,1,0.4,1,1  s-0.4,1-1,1c-0.5,0-1-0.4-1-1C72.6,18.1,73,17.7,73.6,17.7z M14.6,76.6c0.5,0,1,0.4,1,1c0,0.5-0.4,1-1,1c-0.5,0-1-0.4-1-1  C13.6,77.1,14.1,76.6,14.6,76.6z M13.9,19.3c0.4-0.5,0.8-1,1.3-1.5c0.3,0.2,0.4,0.5,0.4,0.8c0,0.5-0.4,1-1,1  C14.3,19.6,14,19.5,13.9,19.3z M73.6,72.7c0.5,0,1,0.4,1,1c0,0.5-0.4,1-1,1c-0.5,0-1-0.4-1-1C72.6,73.1,73,72.7,73.6,72.7z   M73.6,13.7c0.5,0,1,0.4,1,1c0,0.5-0.4,1-1,1c-0.5,0-1-0.4-1-1C72.6,14.2,73,13.7,73.6,13.7z M14.6,72.7c0.5,0,1,0.4,1,1  c0,0.5-0.4,1-1,1c-0.5,0-1-0.4-1-1C13.6,73.1,14.1,72.7,14.6,72.7z M73.6,68.8c0.5,0,1,0.4,1,1c0,0.5-0.4,1-1,1c-0.5,0-1-0.4-1-1  C72.6,69.2,73,68.8,73.6,68.8z M73.6,9.8c0.5,0,1,0.4,1,1c0,0.5-0.4,1-1,1c-0.5,0-1-0.4-1-1C72.6,10.2,73,9.8,73.6,9.8z M14.6,68.8  c0.5,0,1,0.4,1,1c0,0.5-0.4,1-1,1c-0.5,0-1-0.4-1-1C13.6,69.2,14.1,68.8,14.6,68.8z M73.6,64.8c0.5,0,1,0.4,1,1c0,0.5-0.4,1-1,1  c-0.5,0-1-0.4-1-1C72.6,65.3,73,64.8,73.6,64.8z M14.6,64.8c0.5,0,1,0.4,1,1c0,0.5-0.4,1-1,1c-0.5,0-1-0.4-1-1  C13.6,65.3,14.1,64.8,14.6,64.8z M73.6,60.9c0.5,0,1,0.4,1,1c0,0.5-0.4,1-1,1c-0.5,0-1-0.4-1-1S73,60.9,73.6,60.9z M14.6,60.9  c0.5,0,1,0.4,1,1c0,0.5-0.4,1-1,1c-0.5,0-1-0.4-1-1S14.1,60.9,14.6,60.9z M73.6,57c0.5,0,1,0.4,1,1s-0.4,1-1,1c-0.5,0-1-0.4-1-1  C72.6,57.4,73,57,73.6,57z M14.6,57c0.5,0,1,0.4,1,1s-0.4,1-1,1c-0.5,0-1-0.4-1-1C13.6,57.4,14.1,57,14.6,57z M73.6,53  c0.5,0,1,0.4,1,1c0,0.5-0.4,1-1,1c-0.5,0-1-0.4-1-1C72.6,53.5,73,53,73.6,53z M14.6,53c0.5,0,1,0.4,1,1c0,0.5-0.4,1-1,1  c-0.5,0-1-0.4-1-1C13.6,53.5,14.1,53,14.6,53z M73.6,49.1c0.5,0,1,0.4,1,1c0,0.5-0.4,1-1,1c-0.5,0-1-0.4-1-1  C72.6,49.5,73,49.1,73.6,49.1z M14.6,49.1c0.5,0,1,0.4,1,1c0,0.5-0.4,1-1,1c-0.5,0-1-0.4-1-1C13.6,49.5,14.1,49.1,14.6,49.1z   M73.6,45.2c0.5,0,1,0.4,1,1c0,0.5-0.4,1-1,1c-0.5,0-1-0.4-1-1C72.6,45.6,73,45.2,73.6,45.2z M14.6,45.2c0.5,0,1,0.4,1,1  c0,0.5-0.4,1-1,1c-0.5,0-1-0.4-1-1C13.6,45.6,14.1,45.2,14.6,45.2z M73.6,41.2c0.5,0,1,0.4,1,1c0,0.5-0.4,1-1,1c-0.5,0-1-0.4-1-1  C72.6,41.7,73,41.2,73.6,41.2z M14.6,41.2c0.5,0,1,0.4,1,1c0,0.5-0.4,1-1,1c-0.5,0-1-0.4-1-1C13.6,41.7,14.1,41.2,14.6,41.2z   M73.6,37.3c0.5,0,1,0.4,1,1s-0.4,1-1,1c-0.5,0-1-0.4-1-1C72.6,37.7,73,37.3,73.6,37.3z M14.6,37.3c0.5,0,1,0.4,1,1s-0.4,1-1,1  c-0.5,0-1-0.4-1-1C13.6,37.7,14.1,37.3,14.6,37.3z M73.6,33.4c0.5,0,1,0.4,1,1c0,0.5-0.4,1-1,1c-0.5,0-1-0.4-1-1  C72.6,33.8,73,33.4,73.6,33.4z M14.6,33.4c0.5,0,1,0.4,1,1c0,0.5-0.4,1-1,1c-0.5,0-1-0.4-1-1C13.6,33.8,14.1,33.4,14.6,33.4z   M73.6,88.4c0.5,0,1,0.4,1,1c0,0.5-0.4,1-1,1c-0.5,0-1-0.4-1-1C72.6,88.9,73,88.4,73.6,88.4z M73.6,29.4c0.5,0,1,0.4,1,1  c0,0.5-0.4,1-1,1c-0.5,0-1-0.4-1-1C72.6,29.9,73,29.4,73.6,29.4z M14.6,29.4c0.5,0,1,0.4,1,1c0,0.5-0.4,1-1,1c-0.5,0-1-0.4-1-1  C13.6,29.9,14.1,29.4,14.6,29.4z M73.6,84.5c0.5,0,1,0.4,1,1c0,0.5-0.4,1-1,1c-0.5,0-1-0.4-1-1C72.6,84.9,73,84.5,73.6,84.5z   M73.6,25.5c0.5,0,1,0.4,1,1c0,0.5-0.4,1-1,1c-0.5,0-1-0.4-1-1C72.6,26,73,25.5,73.6,25.5z M14.6,25.5c0.5,0,1,0.4,1,1  c0,0.5-0.4,1-1,1c-0.5,0-1-0.4-1-1C13.6,26,14.1,25.5,14.6,25.5z M73.6,80.5c0.5,0,1,0.4,1,1c0,0.5-0.4,1-1,1c-0.5,0-1-0.4-1-1  C72.6,81,73,80.5,73.6,80.5z M73.6,21.6c0.5,0,1,0.4,1,1c0,0.5-0.4,1-1,1c-0.5,0-1-0.4-1-1S73,21.6,73.6,21.6z M15.2,82.4  c-0.4-0.5-0.9-1-1.3-1.5c0.2-0.2,0.4-0.4,0.8-0.4c0.5,0,1,0.4,1,1C15.6,81.9,15.4,82.2,15.2,82.4z M14.6,21.6c0.5,0,1,0.4,1,1  c0,0.5-0.4,1-1,1c-0.5,0-1-0.4-1-1S14.1,21.6,14.6,21.6z M69.7,76.6c0.5,0,1,0.4,1,1c0,0.5-0.4,1-1,1c-0.5,0-1-0.4-1-1  C68.7,77.1,69.1,76.6,69.7,76.6z M69.7,17.6c0.5,0,1,0.4,1,1s-0.4,1-1,1c-0.5,0-1-0.4-1-1C68.7,18.1,69.1,17.6,69.7,17.6z M11.6,78  c-0.3-0.5-0.7-0.9-1-1.4c0,0,0.1,0,0.1,0c0.5,0,1,0.4,1,1C11.7,77.7,11.6,77.9,11.6,78L11.6,78z M69.7,72.7c0.5,0,1,0.4,1,1  c0,0.5-0.4,1-1,1c-0.5,0-1-0.4-1-1C68.7,73.1,69.1,72.7,69.7,72.7z M69.7,13.7c0.5,0,1,0.4,1,1c0,0.5-0.4,1-1,1c-0.5,0-1-0.4-1-1  C68.7,14.2,69.1,13.7,69.7,13.7z M10.7,72.7c0.5,0,1,0.4,1,1c0,0.5-0.4,1-1,1c-0.5,0-1-0.4-1-1C9.7,73.1,10.1,72.7,10.7,72.7z   M69.7,68.7c0.5,0,1,0.4,1,1c0,0.5-0.4,1-1,1c-0.5,0-1-0.4-1-1C68.7,69.2,69.1,68.7,69.7,68.7z M69.7,9.8c0.5,0,1,0.4,1,1  c0,0.5-0.4,1-1,1c-0.5,0-1-0.4-1-1C68.7,10.2,69.1,9.8,69.7,9.8z M10.7,68.7c0.5,0,1,0.4,1,1c0,0.5-0.4,1-1,1c-0.5,0-1-0.4-1-1  C9.7,69.2,10.1,68.7,10.7,68.7z M69.7,64.8c0.5,0,1,0.4,1,1c0,0.5-0.4,1-1,1c-0.5,0-1-0.4-1-1C68.7,65.3,69.1,64.8,69.7,64.8z   M68.8,6.4C69.4,6.7,70,7,70.6,7.2c-0.2,0.3-0.5,0.6-0.9,0.6c-0.5,0-1-0.4-1-1C68.7,6.7,68.7,6.5,68.8,6.4L68.8,6.4z M10.7,64.8  c0.5,0,1,0.4,1,1c0,0.5-0.4,1-1,1c-0.5,0-1-0.4-1-1C9.7,65.3,10.1,64.8,10.7,64.8z M69.7,60.9c0.5,0,1,0.4,1,1c0,0.5-0.4,1-1,1  c-0.5,0-1-0.4-1-1C68.7,61.3,69.1,60.9,69.7,60.9z M10.7,60.9c0.5,0,1,0.4,1,1c0,0.5-0.4,1-1,1c-0.5,0-1-0.4-1-1  C9.7,61.3,10.1,60.9,10.7,60.9z M69.7,56.9c0.5,0,1,0.4,1,1s-0.4,1-1,1c-0.5,0-1-0.4-1-1C68.7,57.4,69.1,56.9,69.7,56.9z   M10.7,56.9c0.5,0,1,0.4,1,1s-0.4,1-1,1c-0.5,0-1-0.4-1-1C9.7,57.4,10.1,56.9,10.7,56.9z M69.7,53c0.5,0,1,0.4,1,1c0,0.5-0.4,1-1,1  c-0.5,0-1-0.4-1-1C68.7,53.5,69.1,53,69.7,53z M10.7,53c0.5,0,1,0.4,1,1c0,0.5-0.4,1-1,1c-0.5,0-1-0.4-1-1  C9.7,53.5,10.1,53,10.7,53z M69.7,49.1c0.5,0,1,0.4,1,1c0,0.5-0.4,1-1,1c-0.5,0-1-0.4-1-1C68.7,49.5,69.1,49.1,69.7,49.1z   M10.7,49.1c0.5,0,1,0.4,1,1c0,0.5-0.4,1-1,1c-0.5,0-1-0.4-1-1C9.7,49.5,10.1,49.1,10.7,49.1z M69.7,45.2c0.5,0,1,0.4,1,1  c0,0.5-0.4,1-1,1c-0.5,0-1-0.4-1-1C68.7,45.6,69.1,45.2,69.7,45.2z M10.7,45.2c0.5,0,1,0.4,1,1c0,0.5-0.4,1-1,1c-0.5,0-1-0.4-1-1  C9.7,45.6,10.1,45.2,10.7,45.2z M69.7,41.2c0.5,0,1,0.4,1,1c0,0.5-0.4,1-1,1c-0.5,0-1-0.4-1-1C68.7,41.7,69.1,41.2,69.7,41.2z   M10.7,41.2c0.5,0,1,0.4,1,1c0,0.5-0.4,1-1,1c-0.5,0-1-0.4-1-1C9.7,41.7,10.1,41.2,10.7,41.2z M69.7,37.3c0.5,0,1,0.4,1,1  c0,0.5-0.4,1-1,1c-0.5,0-1-0.4-1-1C68.7,37.7,69.1,37.3,69.7,37.3z M10.7,37.3c0.5,0,1,0.4,1,1c0,0.5-0.4,1-1,1c-0.5,0-1-0.4-1-1  C9.7,37.7,10.1,37.3,10.7,37.3z M70.6,92.9c-0.6,0.3-1.2,0.6-1.8,0.8c-0.1-0.1-0.1-0.3-0.1-0.4c0-0.5,0.4-1,1-1  C70.1,92.3,70.4,92.6,70.6,92.9L70.6,92.9z M69.7,33.4c0.5,0,1,0.4,1,1c0,0.5-0.4,1-1,1c-0.5,0-1-0.4-1-1  C68.7,33.8,69.1,33.4,69.7,33.4z M10.7,33.4c0.5,0,1,0.4,1,1c0,0.5-0.4,1-1,1c-0.5,0-1-0.4-1-1C9.7,33.8,10.1,33.4,10.7,33.4z   M69.7,88.4c0.5,0,1,0.4,1,1c0,0.5-0.4,1-1,1c-0.5,0-1-0.4-1-1C68.7,88.8,69.1,88.4,69.7,88.4z M69.7,29.4c0.5,0,1,0.4,1,1  c0,0.5-0.4,1-1,1c-0.5,0-1-0.4-1-1C68.7,29.9,69.1,29.4,69.7,29.4z M10.7,29.4c0.5,0,1,0.4,1,1c0,0.5-0.4,1-1,1c-0.5,0-1-0.4-1-1  C9.7,29.9,10.1,29.4,10.7,29.4z M69.7,84.5c0.5,0,1,0.4,1,1c0,0.5-0.4,1-1,1c-0.5,0-1-0.4-1-1C68.7,84.9,69.1,84.5,69.7,84.5z   M69.7,25.5c0.5,0,1,0.4,1,1c0,0.5-0.4,1-1,1c-0.5,0-1-0.4-1-1C68.7,25.9,69.1,25.5,69.7,25.5z M10.7,25.5c0.5,0,1,0.4,1,1  c0,0.5-0.4,1-1,1c-0.5,0-1-0.4-1-1C9.7,25.9,10.1,25.5,10.7,25.5z M69.7,80.5c0.5,0,1,0.4,1,1c0,0.5-0.4,1-1,1c-0.5,0-1-0.4-1-1  C68.7,81,69.1,80.5,69.7,80.5z M69.7,21.6c0.5,0,1,0.4,1,1c0,0.5-0.4,1-1,1c-0.5,0-1-0.4-1-1C68.7,22,69.1,21.6,69.7,21.6z   M10.6,23.5c0.3-0.5,0.6-0.9,1-1.4c0.1,0.1,0.1,0.3,0.1,0.4C11.7,23.1,11.2,23.5,10.6,23.5C10.7,23.5,10.6,23.5,10.6,23.5  L10.6,23.5z M65.7,76.6c0.5,0,1,0.4,1,1c0,0.5-0.4,1-1,1c-0.5,0-1-0.4-1-1C64.7,77,65.2,76.6,65.7,76.6z M65.7,17.6  c0.5,0,1,0.4,1,1s-0.4,1-1,1c-0.5,0-1-0.4-1-1C64.7,18.1,65.2,17.6,65.7,17.6z M65.7,72.7c0.5,0,1,0.4,1,1c0,0.5-0.4,1-1,1  c-0.5,0-1-0.4-1-1C64.7,73.1,65.2,72.7,65.7,72.7z M65.7,13.7c0.5,0,1,0.4,1,1c0,0.5-0.4,1-1,1c-0.5,0-1-0.4-1-1  C64.7,14.1,65.2,13.7,65.7,13.7z M65.7,68.7c0.5,0,1,0.4,1,1c0,0.5-0.4,1-1,1c-0.5,0-1-0.4-1-1C64.7,69.2,65.2,68.7,65.7,68.7z   M65.7,9.8c0.5,0,1,0.4,1,1c0,0.5-0.4,1-1,1c-0.5,0-1-0.4-1-1C64.7,10.2,65.2,9.8,65.7,9.8z M7.2,70.6c-0.3-0.6-0.6-1.2-0.8-1.8  c0.1-0.1,0.3-0.1,0.4-0.1c0.5,0,1,0.4,1,1C7.7,70.1,7.5,70.5,7.2,70.6L7.2,70.6z M65.7,64.8c0.5,0,1,0.4,1,1c0,0.5-0.4,1-1,1  c-0.5,0-1-0.4-1-1C64.7,65.3,65.2,64.8,65.7,64.8z M65.7,5.8c0.5,0,1,0.4,1,1c0,0.5-0.4,1-1,1c-0.5,0-1-0.4-1-1  C64.7,6.3,65.2,5.8,65.7,5.8z M6.8,64.8c0.5,0,1,0.4,1,1c0,0.5-0.4,1-1,1c-0.5,0-1-0.4-1-1C5.8,65.3,6.2,64.8,6.8,64.8z M65.7,60.9  c0.5,0,1,0.4,1,1c0,0.5-0.4,1-1,1c-0.5,0-1-0.4-1-1C64.7,61.3,65.2,60.9,65.7,60.9z M6.8,60.9c0.5,0,1,0.4,1,1c0,0.5-0.4,1-1,1  c-0.5,0-1-0.4-1-1C5.8,61.3,6.2,60.9,6.8,60.9z M65.7,56.9c0.5,0,1,0.4,1,1c0,0.5-0.4,1-1,1c-0.5,0-1-0.4-1-1  C64.7,57.4,65.2,56.9,65.7,56.9z M6.8,56.9c0.5,0,1,0.4,1,1c0,0.5-0.4,1-1,1c-0.5,0-1-0.4-1-1C5.8,57.4,6.2,56.9,6.8,56.9z   M65.7,53c0.5,0,1,0.4,1,1c0,0.5-0.4,1-1,1c-0.5,0-1-0.4-1-1C64.7,53.5,65.2,53,65.7,53z M6.8,53c0.5,0,1,0.4,1,1c0,0.5-0.4,1-1,1  c-0.5,0-1-0.4-1-1C5.8,53.5,6.2,53,6.8,53z M65.7,49.1c0.5,0,1,0.4,1,1c0,0.5-0.4,1-1,1c-0.5,0-1-0.4-1-1  C64.7,49.5,65.2,49.1,65.7,49.1z M6.8,49.1c0.5,0,1,0.4,1,1c0,0.5-0.4,1-1,1c-0.5,0-1-0.4-1-1C5.8,49.5,6.2,49.1,6.8,49.1z   M65.7,45.1c0.5,0,1,0.4,1,1c0,0.5-0.4,1-1,1c-0.5,0-1-0.4-1-1C64.7,45.6,65.2,45.1,65.7,45.1z M6.8,45.1c0.5,0,1,0.4,1,1  c0,0.5-0.4,1-1,1c-0.5,0-1-0.4-1-1C5.8,45.6,6.2,45.1,6.8,45.1z M65.7,41.2c0.5,0,1,0.4,1,1c0,0.5-0.4,1-1,1c-0.5,0-1-0.4-1-1  S65.2,41.2,65.7,41.2z M6.8,41.2c0.5,0,1,0.4,1,1c0,0.5-0.4,1-1,1c-0.5,0-1-0.4-1-1S6.2,41.2,6.8,41.2z M65.7,37.3c0.5,0,1,0.4,1,1  c0,0.5-0.4,1-1,1c-0.5,0-1-0.4-1-1C64.7,37.7,65.2,37.3,65.7,37.3z M6.8,37.3c0.5,0,1,0.4,1,1c0,0.5-0.4,1-1,1c-0.5,0-1-0.4-1-1  C5.8,37.7,6.2,37.3,6.8,37.3z M65.7,92.3c0.5,0,1,0.4,1,1c0,0.5-0.4,1-1,1c-0.5,0-1-0.4-1-1C64.7,92.8,65.2,92.3,65.7,92.3z   M65.7,33.3c0.5,0,1,0.4,1,1c0,0.5-0.4,1-1,1c-0.5,0-1-0.4-1-1C64.7,33.8,65.2,33.3,65.7,33.3z M6.8,33.3c0.5,0,1,0.4,1,1  c0,0.5-0.4,1-1,1c-0.5,0-1-0.4-1-1C5.8,33.8,6.2,33.3,6.8,33.3z M65.7,88.4c0.5,0,1,0.4,1,1c0,0.5-0.4,1-1,1c-0.5,0-1-0.4-1-1  C64.7,88.8,65.2,88.4,65.7,88.4z M65.7,29.4c0.5,0,1,0.4,1,1c0,0.5-0.4,1-1,1c-0.5,0-1-0.4-1-1C64.7,29.9,65.2,29.4,65.7,29.4z   M6.4,31.3c0.3-0.6,0.5-1.2,0.8-1.8c0.3,0.2,0.6,0.5,0.6,0.9c0,0.5-0.4,1-1,1C6.6,31.4,6.5,31.3,6.4,31.3L6.4,31.3z M65.7,84.5  c0.5,0,1,0.4,1,1c0,0.5-0.4,1-1,1c-0.5,0-1-0.4-1-1C64.7,84.9,65.2,84.5,65.7,84.5z M65.7,25.5c0.5,0,1,0.4,1,1c0,0.5-0.4,1-1,1  c-0.5,0-1-0.4-1-1C64.7,25.9,65.2,25.5,65.7,25.5z M65.7,80.5c0.5,0,1,0.4,1,1c0,0.5-0.4,1-1,1c-0.5,0-1-0.4-1-1  C64.7,81,65.2,80.5,65.7,80.5z M65.7,21.5c0.5,0,1,0.4,1,1c0,0.5-0.4,1-1,1c-0.5,0-1-0.4-1-1C64.7,22,65.2,21.5,65.7,21.5z   M61.8,76.6c0.5,0,1,0.4,1,1c0,0.5-0.4,1-1,1s-1-0.4-1-1C60.8,77,61.2,76.6,61.8,76.6z M61.8,17.6c0.5,0,1,0.4,1,1s-0.4,1-1,1  s-1-0.4-1-1C60.8,18,61.2,17.6,61.8,17.6z M61.8,72.7c0.5,0,1,0.4,1,1c0,0.5-0.4,1-1,1s-1-0.4-1-1C60.8,73.1,61.2,72.7,61.8,72.7z   M61.8,13.7c0.5,0,1,0.4,1,1c0,0.5-0.4,1-1,1s-1-0.4-1-1C60.8,14.1,61.2,13.7,61.8,13.7z M61.8,68.7c0.5,0,1,0.4,1,1  c0,0.5-0.4,1-1,1s-1-0.4-1-1C60.8,69.2,61.2,68.7,61.8,68.7z M61.8,9.7c0.5,0,1,0.4,1,1c0,0.5-0.4,1-1,1s-1-0.4-1-1  C60.8,10.2,61.2,9.7,61.8,9.7z M61.8,64.8c0.5,0,1,0.4,1,1c0,0.5-0.4,1-1,1s-1-0.4-1-1C60.8,65.2,61.2,64.8,61.8,64.8z M61.8,5.8  c0.5,0,1,0.4,1,1c0,0.5-0.4,1-1,1s-1-0.4-1-1C60.8,6.3,61.2,5.8,61.8,5.8z M61.8,60.9c0.5,0,1,0.4,1,1c0,0.5-0.4,1-1,1s-1-0.4-1-1  C60.8,61.3,61.2,60.9,61.8,60.9z M61.8,56.9c0.5,0,1,0.4,1,1c0,0.5-0.4,1-1,1s-1-0.4-1-1C60.8,57.4,61.2,56.9,61.8,56.9z M3.3,58.8  c-0.1-0.6-0.2-1.2-0.3-1.8c0.5,0.1,0.8,0.5,0.8,1C3.8,58.3,3.6,58.6,3.3,58.8L3.3,58.8z M61.8,53c0.5,0,1,0.4,1,1c0,0.5-0.4,1-1,1  s-1-0.4-1-1C60.8,53.4,61.2,53,61.8,53z M2.8,55c-0.1-0.6-0.1-1.3-0.2-1.9c0.1,0,0.1,0,0.2,0c0.5,0,1,0.4,1,1  C3.8,54.5,3.4,55,2.8,55C2.8,55,2.8,55,2.8,55L2.8,55z M61.8,49.1c0.5,0,1,0.4,1,1c0,0.5-0.4,1-1,1s-1-0.4-1-1  C60.8,49.5,61.2,49.1,61.8,49.1z M2.5,51c0-0.3,0-0.6,0-0.9c0-0.3,0-0.6,0-0.9c0.1,0,0.2,0,0.3,0c0.5,0,1,0.4,1,1c0,0.5-0.4,1-1,1  C2.7,51,2.6,51,2.5,51L2.5,51z M61.8,45.1c0.5,0,1,0.4,1,1c0,0.5-0.4,1-1,1s-1-0.4-1-1C60.8,45.6,61.2,45.1,61.8,45.1z M2.6,47.1  c0-0.7,0.1-1.3,0.2-1.9c0,0,0,0,0.1,0c0.5,0,1,0.4,1,1c0,0.5-0.4,1-1,1C2.7,47.1,2.7,47.1,2.6,47.1L2.6,47.1z M61.8,41.2  c0.5,0,1,0.4,1,1c0,0.5-0.4,1-1,1s-1-0.4-1-1C60.8,41.6,61.2,41.2,61.8,41.2z M3,43.1c0.1-0.6,0.2-1.2,0.3-1.8  c0.3,0.2,0.5,0.5,0.5,0.9C3.8,42.7,3.5,43.1,3,43.1L3,43.1z M61.8,37.3c0.5,0,1,0.4,1,1c0,0.5-0.4,1-1,1s-1-0.4-1-1  C60.8,37.7,61.2,37.3,61.8,37.3z M61.8,92.3c0.5,0,1,0.4,1,1c0,0.5-0.4,1-1,1s-1-0.4-1-1C60.8,92.8,61.2,92.3,61.8,92.3z   M61.8,33.3c0.5,0,1,0.4,1,1c0,0.5-0.4,1-1,1s-1-0.4-1-1C60.8,33.8,61.2,33.3,61.8,33.3z M61.8,88.4c0.5,0,1,0.4,1,1  c0,0.5-0.4,1-1,1s-1-0.4-1-1C60.8,88.8,61.2,88.4,61.8,88.4z M61.8,29.4c0.5,0,1,0.4,1,1c0,0.5-0.4,1-1,1s-1-0.4-1-1  C60.8,29.8,61.2,29.4,61.8,29.4z M61.8,84.4c0.5,0,1,0.4,1,1c0,0.5-0.4,1-1,1s-1-0.4-1-1C60.8,84.9,61.2,84.4,61.8,84.4z   M61.8,25.5c0.5,0,1,0.4,1,1c0,0.5-0.4,1-1,1s-1-0.4-1-1C60.8,25.9,61.2,25.5,61.8,25.5z M61.8,80.5c0.5,0,1,0.4,1,1  c0,0.5-0.4,1-1,1s-1-0.4-1-1C60.8,81,61.2,80.5,61.8,80.5z M61.8,21.5c0.5,0,1,0.4,1,1c0,0.5-0.4,1-1,1s-1-0.4-1-1  C60.8,22,61.2,21.5,61.8,21.5z M57.9,76.6c0.5,0,1,0.4,1,1c0,0.5-0.4,1-1,1c-0.5,0-1-0.4-1-1C56.9,77,57.3,76.6,57.9,76.6z   M57.9,17.6c0.5,0,1,0.4,1,1s-0.4,1-1,1c-0.5,0-1-0.4-1-1C56.9,18,57.3,17.6,57.9,17.6z M57.9,72.6c0.5,0,1,0.4,1,1  c0,0.5-0.4,1-1,1c-0.5,0-1-0.4-1-1C56.9,73.1,57.3,72.6,57.9,72.6z M57.9,13.7c0.5,0,1,0.4,1,1c0,0.5-0.4,1-1,1c-0.5,0-1-0.4-1-1  C56.9,14.1,57.3,13.7,57.9,13.7z M57.9,68.7c0.5,0,1,0.4,1,1c0,0.5-0.4,1-1,1c-0.5,0-1-0.4-1-1C56.9,69.2,57.3,68.7,57.9,68.7z   M57.9,9.7c0.5,0,1,0.4,1,1c0,0.5-0.4,1-1,1c-0.5,0-1-0.4-1-1C56.9,10.2,57.3,9.7,57.9,9.7z M57.9,64.8c0.5,0,1,0.4,1,1  c0,0.5-0.4,1-1,1c-0.5,0-1-0.4-1-1C56.9,65.2,57.3,64.8,57.9,64.8z M57.9,5.8c0.5,0,1,0.4,1,1c0,0.5-0.4,1-1,1c-0.5,0-1-0.4-1-1  C56.9,6.2,57.3,5.8,57.9,5.8z M57.9,60.8c0.5,0,1,0.4,1,1c0,0.5-0.4,1-1,1c-0.5,0-1-0.4-1-1C56.9,61.3,57.3,60.8,57.9,60.8z   M56.9,3c0.6,0.1,1.2,0.2,1.8,0.3c-0.2,0.3-0.5,0.5-0.9,0.5C57.4,3.8,57,3.5,56.9,3L56.9,3z M57.9,56.9c0.5,0,1,0.4,1,1s-0.4,1-1,1  c-0.5,0-1-0.4-1-1C56.9,57.4,57.3,56.9,57.9,56.9z M57.9,53c0.5,0,1,0.4,1,1c0,0.5-0.4,1-1,1c-0.5,0-1-0.4-1-1  C56.9,53.4,57.3,53,57.9,53z M57.9,49.1c0.5,0,1,0.4,1,1c0,0.5-0.4,1-1,1c-0.5,0-1-0.4-1-1C56.9,49.5,57.3,49.1,57.9,49.1z   M57.9,45.1c0.5,0,1,0.4,1,1c0,0.5-0.4,1-1,1c-0.5,0-1-0.4-1-1C56.9,45.6,57.3,45.1,57.9,45.1z M57.9,41.2c0.5,0,1,0.4,1,1  c0,0.5-0.4,1-1,1c-0.5,0-1-0.4-1-1C56.9,41.6,57.3,41.2,57.9,41.2z M58.7,96.7c-0.6,0.1-1.2,0.2-1.8,0.3c0.1-0.5,0.5-0.8,1-0.8  C58.2,96.2,58.6,96.4,58.7,96.7L58.7,96.7z M57.9,37.3c0.5,0,1,0.4,1,1c0,0.5-0.4,1-1,1c-0.5,0-1-0.4-1-1  C56.9,37.7,57.3,37.3,57.9,37.3z M57.9,92.3c0.5,0,1,0.4,1,1c0,0.5-0.4,1-1,1c-0.5,0-1-0.4-1-1C56.9,92.7,57.3,92.3,57.9,92.3z   M57.9,33.3c0.5,0,1,0.4,1,1c0,0.5-0.4,1-1,1c-0.5,0-1-0.4-1-1C56.9,33.8,57.3,33.3,57.9,33.3z M57.9,88.4c0.5,0,1,0.4,1,1  c0,0.5-0.4,1-1,1c-0.5,0-1-0.4-1-1C56.9,88.8,57.3,88.4,57.9,88.4z M57.9,29.4c0.5,0,1,0.4,1,1c0,0.5-0.4,1-1,1c-0.5,0-1-0.4-1-1  C56.9,29.8,57.3,29.4,57.9,29.4z M57.9,84.4c0.5,0,1,0.4,1,1c0,0.5-0.4,1-1,1c-0.5,0-1-0.4-1-1C56.9,84.9,57.3,84.4,57.9,84.4z   M57.9,25.5c0.5,0,1,0.4,1,1c0,0.5-0.4,1-1,1c-0.5,0-1-0.4-1-1C56.9,25.9,57.3,25.5,57.9,25.5z M57.9,80.5c0.5,0,1,0.4,1,1  c0,0.5-0.4,1-1,1c-0.5,0-1-0.4-1-1C56.9,80.9,57.3,80.5,57.9,80.5z M57.9,21.5c0.5,0,1,0.4,1,1c0,0.5-0.4,1-1,1c-0.5,0-1-0.4-1-1  C56.9,22,57.3,21.5,57.9,21.5z M53.9,76.6c0.5,0,1,0.4,1,1c0,0.5-0.4,1-1,1c-0.5,0-1-0.4-1-1C52.9,77,53.4,76.6,53.9,76.6z   M53.9,17.6c0.5,0,1,0.4,1,1s-0.4,1-1,1c-0.5,0-1-0.4-1-1C52.9,18,53.4,17.6,53.9,17.6z M53.9,72.6c0.5,0,1,0.4,1,1  c0,0.5-0.4,1-1,1c-0.5,0-1-0.4-1-1C52.9,73.1,53.4,72.6,53.9,72.6z M53.9,13.7c0.5,0,1,0.4,1,1c0,0.5-0.4,1-1,1c-0.5,0-1-0.4-1-1  C52.9,14.1,53.4,13.7,53.9,13.7z M53.9,68.7c0.5,0,1,0.4,1,1c0,0.5-0.4,1-1,1c-0.5,0-1-0.4-1-1C52.9,69.1,53.4,68.7,53.9,68.7z   M53.9,9.7c0.5,0,1,0.4,1,1c0,0.5-0.4,1-1,1c-0.5,0-1-0.4-1-1C52.9,10.2,53.4,9.7,53.9,9.7z M53.9,64.8c0.5,0,1,0.4,1,1  c0,0.5-0.4,1-1,1c-0.5,0-1-0.4-1-1C52.9,65.2,53.4,64.8,53.9,64.8z M53.9,5.8c0.5,0,1,0.4,1,1c0,0.5-0.4,1-1,1c-0.5,0-1-0.4-1-1  C52.9,6.2,53.4,5.8,53.9,5.8z M53.9,60.8c0.5,0,1,0.4,1,1c0,0.5-0.4,1-1,1c-0.5,0-1-0.4-1-1C52.9,61.3,53.4,60.8,53.9,60.8z   M53,2.6c0.7,0,1.3,0.1,1.9,0.2c0,0,0,0,0,0.1c0,0.5-0.4,1-1,1c-0.5,0-1-0.4-1-1C52.9,2.8,52.9,2.7,53,2.6L53,2.6z M53.9,56.9  c0.5,0,1,0.4,1,1c0,0.5-0.4,1-1,1c-0.5,0-1-0.4-1-1C52.9,57.3,53.4,56.9,53.9,56.9z M53.9,53c0.5,0,1,0.4,1,1c0,0.5-0.4,1-1,1  c-0.5,0-1-0.4-1-1C52.9,53.4,53.4,53,53.9,53z M53.9,49c0.5,0,1,0.4,1,1c0,0.5-0.4,1-1,1c-0.5,0-1-0.4-1-1  C52.9,49.5,53.4,49,53.9,49z M53.9,45.1c0.5,0,1,0.4,1,1c0,0.5-0.4,1-1,1c-0.5,0-1-0.4-1-1C52.9,45.5,53.4,45.1,53.9,45.1z   M53.9,41.2c0.5,0,1,0.4,1,1c0,0.5-0.4,1-1,1c-0.5,0-1-0.4-1-1S53.4,41.2,53.9,41.2z M54.9,97.3c-0.6,0.1-1.3,0.1-1.9,0.2  c0-0.1,0-0.1,0-0.2c0-0.5,0.4-1,1-1C54.5,96.2,54.9,96.6,54.9,97.3C54.9,97.2,54.9,97.2,54.9,97.3L54.9,97.3z M53.9,37.2  c0.5,0,1,0.4,1,1c0,0.5-0.4,1-1,1c-0.5,0-1-0.4-1-1C52.9,37.7,53.4,37.2,53.9,37.2z M53.9,92.3c0.5,0,1,0.4,1,1c0,0.5-0.4,1-1,1  c-0.5,0-1-0.4-1-1C52.9,92.7,53.4,92.3,53.9,92.3z M53.9,33.3c0.5,0,1,0.4,1,1c0,0.5-0.4,1-1,1c-0.5,0-1-0.4-1-1  C52.9,33.8,53.4,33.3,53.9,33.3z M53.9,88.3c0.5,0,1,0.4,1,1c0,0.5-0.4,1-1,1c-0.5,0-1-0.4-1-1C52.9,88.8,53.4,88.3,53.9,88.3z   M53.9,29.4c0.5,0,1,0.4,1,1c0,0.5-0.4,1-1,1c-0.5,0-1-0.4-1-1C52.9,29.8,53.4,29.4,53.9,29.4z M53.9,84.4c0.5,0,1,0.4,1,1  c0,0.5-0.4,1-1,1c-0.5,0-1-0.4-1-1C52.9,84.9,53.4,84.4,53.9,84.4z M53.9,25.4c0.5,0,1,0.4,1,1c0,0.5-0.4,1-1,1c-0.5,0-1-0.4-1-1  C52.9,25.9,53.4,25.4,53.9,25.4z M53.9,80.5c0.5,0,1,0.4,1,1c0,0.5-0.4,1-1,1c-0.5,0-1-0.4-1-1C52.9,80.9,53.4,80.5,53.9,80.5z   M53.9,21.5c0.5,0,1,0.4,1,1c0,0.5-0.4,1-1,1c-0.5,0-1-0.4-1-1C52.9,22,53.4,21.5,53.9,21.5z M50,76.5c0.5,0,1,0.4,1,1  c0,0.5-0.4,1-1,1c-0.5,0-1-0.4-1-1C49,77,49.4,76.5,50,76.5z M50,17.6c0.5,0,1,0.4,1,1s-0.4,1-1,1c-0.5,0-1-0.4-1-1  C49,18,49.4,17.6,50,17.6z M50,72.6c0.5,0,1,0.4,1,1c0,0.5-0.4,1-1,1c-0.5,0-1-0.4-1-1C49,73.1,49.4,72.6,50,72.6z M50,13.6  c0.5,0,1,0.4,1,1c0,0.5-0.4,1-1,1c-0.5,0-1-0.4-1-1C49,14.1,49.4,13.6,50,13.6z M50,68.7c0.5,0,1,0.4,1,1c0,0.5-0.4,1-1,1  c-0.5,0-1-0.4-1-1C49,69.1,49.4,68.7,50,68.7z M50,9.7c0.5,0,1,0.4,1,1c0,0.5-0.4,1-1,1c-0.5,0-1-0.4-1-1C49,10.2,49.4,9.7,50,9.7z   M50,64.7c0.5,0,1,0.4,1,1c0,0.5-0.4,1-1,1c-0.5,0-1-0.4-1-1C49,65.2,49.4,64.7,50,64.7z M50,5.8c0.5,0,1,0.4,1,1c0,0.5-0.4,1-1,1  c-0.5,0-1-0.4-1-1C49,6.2,49.4,5.8,50,5.8z M50,60.8c0.5,0,1,0.4,1,1c0,0.5-0.4,1-1,1c-0.5,0-1-0.4-1-1C49,61.3,49.4,60.8,50,60.8z   M50,2.5c0.3,0,0.6,0,0.9,0c0,0.1,0,0.2,0,0.3c0,0.5-0.4,1-1,1c-0.5,0-1-0.4-1-1c0-0.1,0-0.2,0-0.3C49.4,2.5,49.7,2.5,50,2.5  L50,2.5z M50,56.9c0.5,0,1,0.4,1,1c0,0.5-0.4,1-1,1c-0.5,0-1-0.4-1-1C49,57.3,49.4,56.9,50,56.9z M50,52.9c0.5,0,1,0.4,1,1  c0,0.5-0.4,1-1,1c-0.5,0-1-0.4-1-1C49,53.4,49.4,52.9,50,52.9z M50,49c0.5,0,1,0.4,1,1c0,0.5-0.4,1-1,1c-0.5,0-1-0.4-1-1  C49,49.5,49.4,49,50,49z M50,45.1c0.5,0,1,0.4,1,1c0,0.5-0.4,1-1,1c-0.5,0-1-0.4-1-1C49,45.5,49.4,45.1,50,45.1z M50,41.2  c0.5,0,1,0.4,1,1c0,0.5-0.4,1-1,1c-0.5,0-1-0.4-1-1S49.4,41.2,50,41.2z M50.9,97.5c-0.3,0-0.6,0-0.9,0c-0.3,0-0.6,0-0.9,0  c0-0.1,0-0.2,0-0.3c0-0.5,0.4-1,1-1c0.5,0,1,0.4,1,1C51,97.3,51,97.4,50.9,97.5L50.9,97.5z M50,37.2c0.5,0,1,0.4,1,1  c0,0.5-0.4,1-1,1c-0.5,0-1-0.4-1-1C49,37.7,49.4,37.2,50,37.2z M50,92.3c0.5,0,1,0.4,1,1c0,0.5-0.4,1-1,1c-0.5,0-1-0.4-1-1  C49,92.7,49.4,92.3,50,92.3z M50,33.3c0.5,0,1,0.4,1,1c0,0.5-0.4,1-1,1c-0.5,0-1-0.4-1-1C49,33.7,49.4,33.3,50,33.3z M50,88.3  c0.5,0,1,0.4,1,1c0,0.5-0.4,1-1,1c-0.5,0-1-0.4-1-1C49,88.8,49.4,88.3,50,88.3z M50,29.4c0.5,0,1,0.4,1,1c0,0.5-0.4,1-1,1  c-0.5,0-1-0.4-1-1C49,29.8,49.4,29.4,50,29.4z M50,84.4c0.5,0,1,0.4,1,1c0,0.5-0.4,1-1,1c-0.5,0-1-0.4-1-1  C49,84.8,49.4,84.4,50,84.4z M50,25.4c0.5,0,1,0.4,1,1c0,0.5-0.4,1-1,1c-0.5,0-1-0.4-1-1C49,25.9,49.4,25.4,50,25.4z M50,80.5  c0.5,0,1,0.4,1,1c0,0.5-0.4,1-1,1c-0.5,0-1-0.4-1-1C49,80.9,49.4,80.5,50,80.5z M50,21.5c0.5,0,1,0.4,1,1c0,0.5-0.4,1-1,1  c-0.5,0-1-0.4-1-1C49,21.9,49.4,21.5,50,21.5z M46.1,76.5c0.5,0,1,0.4,1,1c0,0.5-0.4,1-1,1c-0.5,0-1-0.4-1-1  C45.1,77,45.5,76.5,46.1,76.5z M46.1,17.6c0.5,0,1,0.4,1,1s-0.4,1-1,1c-0.5,0-1-0.4-1-1C45.1,18,45.5,17.6,46.1,17.6z M46.1,72.6  c0.5,0,1,0.4,1,1c0,0.5-0.4,1-1,1c-0.5,0-1-0.4-1-1C45.1,73,45.5,72.6,46.1,72.6z M46.1,13.6c0.5,0,1,0.4,1,1c0,0.5-0.4,1-1,1  c-0.5,0-1-0.4-1-1C45.1,14.1,45.5,13.6,46.1,13.6z M46.1,68.7c0.5,0,1,0.4,1,1c0,0.5-0.4,1-1,1c-0.5,0-1-0.4-1-1  C45.1,69.1,45.5,68.7,46.1,68.7z M46.1,9.7c0.5,0,1,0.4,1,1c0,0.5-0.4,1-1,1c-0.5,0-1-0.4-1-1C45.1,10.1,45.5,9.7,46.1,9.7z   M46.1,64.7c0.5,0,1,0.4,1,1c0,0.5-0.4,1-1,1c-0.5,0-1-0.4-1-1C45.1,65.2,45.5,64.7,46.1,64.7z M46.1,5.8c0.5,0,1,0.4,1,1  c0,0.5-0.4,1-1,1c-0.5,0-1-0.4-1-1C45.1,6.2,45.5,5.8,46.1,5.8z M46.1,60.8c0.5,0,1,0.4,1,1c0,0.5-0.4,1-1,1c-0.5,0-1-0.4-1-1  C45.1,61.2,45.5,60.8,46.1,60.8z M45.1,2.7c0.6-0.1,1.3-0.1,1.9-0.2c0,0.1,0,0.1,0,0.2c0,0.5-0.4,1-1,1C45.5,3.8,45.1,3.4,45.1,2.7  C45.1,2.8,45.1,2.8,45.1,2.7L45.1,2.7z M46.1,56.9c0.5,0,1,0.4,1,1c0,0.5-0.4,1-1,1c-0.5,0-1-0.4-1-1  C45.1,57.3,45.5,56.9,46.1,56.9z M46.1,52.9c0.5,0,1,0.4,1,1c0,0.5-0.4,1-1,1c-0.5,0-1-0.4-1-1C45.1,53.4,45.5,52.9,46.1,52.9z   M46.1,49c0.5,0,1,0.4,1,1c0,0.5-0.4,1-1,1c-0.5,0-1-0.4-1-1C45.1,49.4,45.5,49,46.1,49z M46.1,45.1c0.5,0,1,0.4,1,1  c0,0.5-0.4,1-1,1c-0.5,0-1-0.4-1-1C45.1,45.5,45.5,45.1,46.1,45.1z M46.1,41.1c0.5,0,1,0.4,1,1c0,0.5-0.4,1-1,1c-0.5,0-1-0.4-1-1  S45.5,41.1,46.1,41.1z M47,97.4c-0.7,0-1.3-0.1-1.9-0.2c0,0,0,0,0-0.1c0-0.5,0.4-1,1-1c0.5,0,1,0.4,1,1  C47.1,97.2,47.1,97.3,47,97.4L47,97.4z M46.1,37.2c0.5,0,1,0.4,1,1c0,0.5-0.4,1-1,1c-0.5,0-1-0.4-1-1  C45.1,37.6,45.5,37.2,46.1,37.2z M46.1,92.2c0.5,0,1,0.4,1,1c0,0.5-0.4,1-1,1c-0.5,0-1-0.4-1-1C45.1,92.7,45.5,92.2,46.1,92.2z   M46.1,33.3c0.5,0,1,0.4,1,1c0,0.5-0.4,1-1,1c-0.5,0-1-0.4-1-1C45.1,33.7,45.5,33.3,46.1,33.3z M46.1,88.3c0.5,0,1,0.4,1,1  c0,0.5-0.4,1-1,1c-0.5,0-1-0.4-1-1C45.1,88.8,45.5,88.3,46.1,88.3z M46.1,29.3c0.5,0,1,0.4,1,1c0,0.5-0.4,1-1,1c-0.5,0-1-0.4-1-1  C45.1,29.8,45.5,29.3,46.1,29.3z M46.1,84.4c0.5,0,1,0.4,1,1c0,0.5-0.4,1-1,1c-0.5,0-1-0.4-1-1C45.1,84.8,45.5,84.4,46.1,84.4z   M46.1,25.4c0.5,0,1,0.4,1,1c0,0.5-0.4,1-1,1c-0.5,0-1-0.4-1-1C45.1,25.8,45.5,25.4,46.1,25.4z M46.1,80.4c0.5,0,1,0.4,1,1  c0,0.5-0.4,1-1,1c-0.5,0-1-0.4-1-1C45.1,80.9,45.5,80.4,46.1,80.4z M46.1,21.5c0.5,0,1,0.4,1,1c0,0.5-0.4,1-1,1c-0.5,0-1-0.4-1-1  C45.1,21.9,45.5,21.5,46.1,21.5z M42.1,76.5c0.5,0,1,0.4,1,1c0,0.5-0.4,1-1,1s-1-0.4-1-1C41.1,76.9,41.6,76.5,42.1,76.5z   M42.1,17.5c0.5,0,1,0.4,1,1s-0.4,1-1,1s-1-0.4-1-1C41.1,18,41.6,17.5,42.1,17.5z M42.1,72.6c0.5,0,1,0.4,1,1c0,0.5-0.4,1-1,1  s-1-0.4-1-1C41.1,73,41.6,72.6,42.1,72.6z M42.1,13.6c0.5,0,1,0.4,1,1c0,0.5-0.4,1-1,1s-1-0.4-1-1C41.1,14,41.6,13.6,42.1,13.6z   M42.1,68.6c0.5,0,1,0.4,1,1c0,0.5-0.4,1-1,1s-1-0.4-1-1C41.1,69.1,41.6,68.6,42.1,68.6z M42.1,9.7c0.5,0,1,0.4,1,1  c0,0.5-0.4,1-1,1s-1-0.4-1-1C41.1,10.1,41.6,9.7,42.1,9.7z M42.1,64.7c0.5,0,1,0.4,1,1c0,0.5-0.4,1-1,1s-1-0.4-1-1  C41.1,65.2,41.6,64.7,42.1,64.7z M42.1,5.7c0.5,0,1,0.4,1,1c0,0.5-0.4,1-1,1s-1-0.4-1-1C41.1,6.2,41.6,5.7,42.1,5.7z M42.1,60.8  c0.5,0,1,0.4,1,1c0,0.5-0.4,1-1,1s-1-0.4-1-1C41.1,61.2,41.6,60.8,42.1,60.8z M41.3,3.3c0.6-0.1,1.2-0.2,1.8-0.3  c-0.1,0.5-0.5,0.8-1,0.8C41.8,3.8,41.4,3.6,41.3,3.3L41.3,3.3z M42.1,56.8c0.5,0,1,0.4,1,1c0,0.5-0.4,1-1,1s-1-0.4-1-1  C41.1,57.3,41.6,56.8,42.1,56.8z M42.1,52.9c0.5,0,1,0.4,1,1c0,0.5-0.4,1-1,1s-1-0.4-1-1C41.1,53.4,41.6,52.9,42.1,52.9z M42.1,49  c0.5,0,1,0.4,1,1c0,0.5-0.4,1-1,1s-1-0.4-1-1C41.1,49.4,41.6,49,42.1,49z M42.1,45c0.5,0,1,0.4,1,1c0,0.5-0.4,1-1,1s-1-0.4-1-1  C41.1,45.5,41.6,45,42.1,45z M42.1,41.1c0.5,0,1,0.4,1,1c0,0.5-0.4,1-1,1s-1-0.4-1-1S41.6,41.1,42.1,41.1z M43.1,97  c-0.6-0.1-1.2-0.2-1.8-0.3c0.2-0.3,0.5-0.5,0.9-0.5C42.6,96.2,43,96.5,43.1,97L43.1,97z M42.1,37.2c0.5,0,1,0.4,1,1  c0,0.5-0.4,1-1,1s-1-0.4-1-1C41.1,37.6,41.6,37.2,42.1,37.2z M42.1,92.2c0.5,0,1,0.4,1,1c0,0.5-0.4,1-1,1s-1-0.4-1-1  C41.1,92.7,41.6,92.2,42.1,92.2z M42.1,33.2c0.5,0,1,0.4,1,1c0,0.5-0.4,1-1,1s-1-0.4-1-1C41.1,33.7,41.6,33.2,42.1,33.2z   M42.1,88.3c0.5,0,1,0.4,1,1c0,0.5-0.4,1-1,1s-1-0.4-1-1C41.1,88.7,41.6,88.3,42.1,88.3z M42.1,29.3c0.5,0,1,0.4,1,1  c0,0.5-0.4,1-1,1s-1-0.4-1-1C41.1,29.8,41.6,29.3,42.1,29.3z M42.1,84.4c0.5,0,1,0.4,1,1c0,0.5-0.4,1-1,1s-1-0.4-1-1  C41.1,84.8,41.6,84.4,42.1,84.4z M42.1,25.4c0.5,0,1,0.4,1,1c0,0.5-0.4,1-1,1s-1-0.4-1-1C41.1,25.8,41.6,25.4,42.1,25.4z   M42.1,80.4c0.5,0,1,0.4,1,1c0,0.5-0.4,1-1,1s-1-0.4-1-1C41.1,80.9,41.6,80.4,42.1,80.4z M42.1,21.4c0.5,0,1,0.4,1,1  c0,0.5-0.4,1-1,1s-1-0.4-1-1C41.1,21.9,41.6,21.4,42.1,21.4z M38.2,76.5c0.5,0,1,0.4,1,1c0,0.5-0.4,1-1,1c-0.5,0-1-0.4-1-1  C37.2,76.9,37.7,76.5,38.2,76.5z M38.2,17.5c0.5,0,1,0.4,1,1s-0.4,1-1,1c-0.5,0-1-0.4-1-1C37.2,18,37.7,17.5,38.2,17.5z M38.2,72.6  c0.5,0,1,0.4,1,1c0,0.5-0.4,1-1,1c-0.5,0-1-0.4-1-1C37.2,73,37.7,72.6,38.2,72.6z M38.2,13.6c0.5,0,1,0.4,1,1c0,0.5-0.4,1-1,1  c-0.5,0-1-0.4-1-1C37.2,14,37.7,13.6,38.2,13.6z M38.2,68.6c0.5,0,1,0.4,1,1c0,0.5-0.4,1-1,1c-0.5,0-1-0.4-1-1  C37.2,69.1,37.7,68.6,38.2,68.6z M38.2,9.6c0.5,0,1,0.4,1,1c0,0.5-0.4,1-1,1c-0.5,0-1-0.4-1-1C37.2,10.1,37.7,9.6,38.2,9.6z   M38.2,64.7c0.5,0,1,0.4,1,1c0,0.5-0.4,1-1,1c-0.5,0-1-0.4-1-1C37.2,65.1,37.7,64.7,38.2,64.7z M38.2,5.7c0.5,0,1,0.4,1,1  c0,0.5-0.4,1-1,1c-0.5,0-1-0.4-1-1C37.2,6.2,37.7,5.7,38.2,5.7z M38.2,60.8c0.5,0,1,0.4,1,1c0,0.5-0.4,1-1,1c-0.5,0-1-0.4-1-1  C37.2,61.2,37.7,60.8,38.2,60.8z M97,56.8c-0.1,0.6-0.2,1.2-0.3,1.8c-0.3-0.2-0.5-0.5-0.5-0.9C96.2,57.3,96.5,56.9,97,56.8L97,56.8  z M38.2,56.8c0.5,0,1,0.4,1,1c0,0.5-0.4,1-1,1c-0.5,0-1-0.4-1-1C37.2,57.3,37.7,56.8,38.2,56.8z M97.4,52.9c0,0.7-0.1,1.3-0.2,1.9  c0,0,0,0-0.1,0c-0.5,0-1-0.4-1-1c0-0.5,0.4-1,1-1C97.3,52.9,97.3,52.9,97.4,52.9L97.4,52.9z M38.2,52.9c0.5,0,1,0.4,1,1  c0,0.5-0.4,1-1,1c-0.5,0-1-0.4-1-1C37.2,53.3,37.7,52.9,38.2,52.9z M97.5,49c0,0.3,0,0.6,0,0.9c0,0.3,0,0.6,0,0.9  c-0.1,0-0.2,0-0.3,0c-0.5,0-1-0.4-1-1c0-0.5,0.4-1,1-1C97.3,48.9,97.4,49,97.5,49L97.5,49z M38.2,49c0.5,0,1,0.4,1,1  c0,0.5-0.4,1-1,1c-0.5,0-1-0.4-1-1C37.2,49.4,37.7,49,38.2,49z M97.2,45c0.1,0.6,0.1,1.3,0.2,1.9c-0.1,0-0.1,0-0.2,0  c-0.5,0-1-0.4-1-1C96.2,45.5,96.6,45,97.2,45C97.2,45,97.2,45,97.2,45L97.2,45z M38.2,45c0.5,0,1,0.4,1,1c0,0.5-0.4,1-1,1  c-0.5,0-1-0.4-1-1C37.2,45.5,37.7,45,38.2,45z M96.7,41.2c0.1,0.6,0.2,1.2,0.3,1.8c-0.5-0.1-0.8-0.5-0.8-1  C96.2,41.7,96.4,41.4,96.7,41.2L96.7,41.2z M38.2,41.1c0.5,0,1,0.4,1,1c0,0.5-0.4,1-1,1c-0.5,0-1-0.4-1-1  C37.2,41.5,37.7,41.1,38.2,41.1z M38.2,37.2c0.5,0,1,0.4,1,1c0,0.5-0.4,1-1,1c-0.5,0-1-0.4-1-1C37.2,37.6,37.7,37.2,38.2,37.2z   M38.2,92.2c0.5,0,1,0.4,1,1c0,0.5-0.4,1-1,1c-0.5,0-1-0.4-1-1C37.2,92.7,37.7,92.2,38.2,92.2z M38.2,33.2c0.5,0,1,0.4,1,1  c0,0.5-0.4,1-1,1c-0.5,0-1-0.4-1-1C37.2,33.7,37.7,33.2,38.2,33.2z M38.2,88.3c0.5,0,1,0.4,1,1c0,0.5-0.4,1-1,1c-0.5,0-1-0.4-1-1  C37.2,88.7,37.7,88.3,38.2,88.3z M38.2,29.3c0.5,0,1,0.4,1,1c0,0.5-0.4,1-1,1c-0.5,0-1-0.4-1-1C37.2,29.8,37.7,29.3,38.2,29.3z   M38.2,84.3c0.5,0,1,0.4,1,1c0,0.5-0.4,1-1,1c-0.5,0-1-0.4-1-1C37.2,84.8,37.7,84.3,38.2,84.3z M38.2,25.4c0.5,0,1,0.4,1,1  c0,0.5-0.4,1-1,1c-0.5,0-1-0.4-1-1C37.2,25.8,37.7,25.4,38.2,25.4z M38.2,80.4c0.5,0,1,0.4,1,1c0,0.5-0.4,1-1,1c-0.5,0-1-0.4-1-1  C37.2,80.9,37.7,80.4,38.2,80.4z M38.2,21.4c0.5,0,1,0.4,1,1c0,0.5-0.4,1-1,1c-0.5,0-1-0.4-1-1C37.2,21.9,37.7,21.4,38.2,21.4z   M34.3,76.5c0.5,0,1,0.4,1,1c0,0.5-0.4,1-1,1c-0.5,0-1-0.4-1-1C33.3,76.9,33.7,76.5,34.3,76.5z M34.3,17.5c0.5,0,1,0.4,1,1  s-0.4,1-1,1c-0.5,0-1-0.4-1-1C33.3,17.9,33.7,17.5,34.3,17.5z M34.3,72.5c0.5,0,1,0.4,1,1c0,0.5-0.4,1-1,1c-0.5,0-1-0.4-1-1  C33.3,73,33.7,72.5,34.3,72.5z M34.3,13.6c0.5,0,1,0.4,1,1c0,0.5-0.4,1-1,1c-0.5,0-1-0.4-1-1C33.3,14,33.7,13.6,34.3,13.6z   M93.6,68.7c-0.3,0.6-0.5,1.2-0.8,1.8c-0.3-0.2-0.6-0.5-0.6-0.9c0-0.5,0.4-1,1-1C93.4,68.6,93.5,68.6,93.6,68.7L93.6,68.7z   M34.3,68.6c0.5,0,1,0.4,1,1c0,0.5-0.4,1-1,1c-0.5,0-1-0.4-1-1C33.3,69.1,33.7,68.6,34.3,68.6z M34.3,9.6c0.5,0,1,0.4,1,1  c0,0.5-0.4,1-1,1c-0.5,0-1-0.4-1-1C33.3,10.1,33.7,9.6,34.3,9.6z M93.2,64.7c0.5,0,1,0.4,1,1c0,0.5-0.4,1-1,1c-0.5,0-1-0.4-1-1  C92.3,65.1,92.7,64.7,93.2,64.7z M34.3,64.7c0.5,0,1,0.4,1,1c0,0.5-0.4,1-1,1c-0.5,0-1-0.4-1-1C33.3,65.1,33.7,64.7,34.3,64.7z   M34.3,5.7c0.5,0,1,0.4,1,1c0,0.5-0.4,1-1,1c-0.5,0-1-0.4-1-1C33.3,6.2,33.7,5.7,34.3,5.7z M93.2,60.7c0.5,0,1,0.4,1,1  c0,0.5-0.4,1-1,1c-0.5,0-1-0.4-1-1C92.3,61.2,92.7,60.7,93.2,60.7z M34.3,60.7c0.5,0,1,0.4,1,1c0,0.5-0.4,1-1,1c-0.5,0-1-0.4-1-1  C33.3,61.2,33.7,60.7,34.3,60.7z M93.2,56.8c0.5,0,1,0.4,1,1c0,0.5-0.4,1-1,1c-0.5,0-1-0.4-1-1C92.3,57.3,92.7,56.8,93.2,56.8z   M34.3,56.8c0.5,0,1,0.4,1,1c0,0.5-0.4,1-1,1c-0.5,0-1-0.4-1-1C33.3,57.3,33.7,56.8,34.3,56.8z M93.2,52.9c0.5,0,1,0.4,1,1  c0,0.5-0.4,1-1,1c-0.5,0-1-0.4-1-1C92.3,53.3,92.7,52.9,93.2,52.9z M34.3,52.9c0.5,0,1,0.4,1,1c0,0.5-0.4,1-1,1c-0.5,0-1-0.4-1-1  C33.3,53.3,33.7,52.9,34.3,52.9z M93.2,49c0.5,0,1,0.4,1,1c0,0.5-0.4,1-1,1c-0.5,0-1-0.4-1-1C92.3,49.4,92.7,49,93.2,49z M34.3,49  c0.5,0,1,0.4,1,1c0,0.5-0.4,1-1,1c-0.5,0-1-0.4-1-1C33.3,49.4,33.7,49,34.3,49z M93.2,45c0.5,0,1,0.4,1,1c0,0.5-0.4,1-1,1  c-0.5,0-1-0.4-1-1C92.3,45.5,92.7,45,93.2,45z M34.3,45c0.5,0,1,0.4,1,1c0,0.5-0.4,1-1,1c-0.5,0-1-0.4-1-1  C33.3,45.5,33.7,45,34.3,45z M93.2,41.1c0.5,0,1,0.4,1,1c0,0.5-0.4,1-1,1c-0.5,0-1-0.4-1-1S92.7,41.1,93.2,41.1z M34.3,41.1  c0.5,0,1,0.4,1,1c0,0.5-0.4,1-1,1c-0.5,0-1-0.4-1-1S33.7,41.1,34.3,41.1z M93.2,37.2c0.5,0,1,0.4,1,1c0,0.5-0.4,1-1,1  c-0.5,0-1-0.4-1-1C92.3,37.6,92.7,37.2,93.2,37.2z M34.3,37.2c0.5,0,1,0.4,1,1c0,0.5-0.4,1-1,1c-0.5,0-1-0.4-1-1  C33.3,37.6,33.7,37.2,34.3,37.2z M93.2,33.2c0.5,0,1,0.4,1,1c0,0.5-0.4,1-1,1c-0.5,0-1-0.4-1-1C92.3,33.7,92.7,33.2,93.2,33.2z   M34.3,92.2c0.5,0,1,0.4,1,1c0,0.5-0.4,1-1,1c-0.5,0-1-0.4-1-1C33.3,92.6,33.7,92.2,34.3,92.2z M34.3,33.2c0.5,0,1,0.4,1,1  c0,0.5-0.4,1-1,1c-0.5,0-1-0.4-1-1C33.3,33.7,33.7,33.2,34.3,33.2z M92.8,29.4c0.3,0.6,0.6,1.2,0.8,1.8c-0.1,0.1-0.3,0.1-0.4,0.1  c-0.5,0-1-0.4-1-1C92.3,29.9,92.5,29.5,92.8,29.4L92.8,29.4z M34.3,88.3c0.5,0,1,0.4,1,1c0,0.5-0.4,1-1,1c-0.5,0-1-0.4-1-1  C33.3,88.7,33.7,88.3,34.3,88.3z M34.3,29.3c0.5,0,1,0.4,1,1c0,0.5-0.4,1-1,1c-0.5,0-1-0.4-1-1C33.3,29.7,33.7,29.3,34.3,29.3z   M34.3,84.3c0.5,0,1,0.4,1,1c0,0.5-0.4,1-1,1c-0.5,0-1-0.4-1-1C33.3,84.8,33.7,84.3,34.3,84.3z M34.3,25.4c0.5,0,1,0.4,1,1  c0,0.5-0.4,1-1,1c-0.5,0-1-0.4-1-1C33.3,25.8,33.7,25.4,34.3,25.4z M34.3,80.4c0.5,0,1,0.4,1,1c0,0.5-0.4,1-1,1c-0.5,0-1-0.4-1-1  C33.3,80.8,33.7,80.4,34.3,80.4z M34.3,21.4c0.5,0,1,0.4,1,1c0,0.5-0.4,1-1,1c-0.5,0-1-0.4-1-1C33.3,21.9,33.7,21.4,34.3,21.4z   M89.4,76.5c-0.3,0.5-0.6,0.9-1,1.4c-0.1-0.1-0.1-0.3-0.1-0.4C88.3,76.9,88.8,76.5,89.4,76.5C89.3,76.5,89.4,76.5,89.4,76.5  L89.4,76.5z M30.3,76.5c0.5,0,1,0.4,1,1c0,0.5-0.4,1-1,1c-0.5,0-1-0.4-1-1C29.3,76.9,29.8,76.5,30.3,76.5z M30.3,17.5  c0.5,0,1,0.4,1,1s-0.4,1-1,1c-0.5,0-1-0.4-1-1C29.3,17.9,29.8,17.5,30.3,17.5z M89.3,72.5c0.5,0,1,0.4,1,1c0,0.5-0.4,1-1,1  c-0.5,0-1-0.4-1-1C88.3,73,88.8,72.5,89.3,72.5z M30.3,72.5c0.5,0,1,0.4,1,1c0,0.5-0.4,1-1,1c-0.5,0-1-0.4-1-1  C29.3,73,29.8,72.5,30.3,72.5z M30.3,13.6c0.5,0,1,0.4,1,1c0,0.5-0.4,1-1,1c-0.5,0-1-0.4-1-1C29.3,14,29.8,13.6,30.3,13.6z   M89.3,68.6c0.5,0,1,0.4,1,1c0,0.5-0.4,1-1,1c-0.5,0-1-0.4-1-1C88.3,69,88.8,68.6,89.3,68.6z M30.3,68.6c0.5,0,1,0.4,1,1  c0,0.5-0.4,1-1,1c-0.5,0-1-0.4-1-1C29.3,69,29.8,68.6,30.3,68.6z M30.3,9.6c0.5,0,1,0.4,1,1c0,0.5-0.4,1-1,1c-0.5,0-1-0.4-1-1  C29.3,10.1,29.8,9.6,30.3,9.6z M89.3,64.7c0.5,0,1,0.4,1,1c0,0.5-0.4,1-1,1c-0.5,0-1-0.4-1-1C88.3,65.1,88.8,64.7,89.3,64.7z   M30.3,64.7c0.5,0,1,0.4,1,1c0,0.5-0.4,1-1,1c-0.5,0-1-0.4-1-1C29.3,65.1,29.8,64.7,30.3,64.7z M29.4,7.1c0.6-0.3,1.2-0.6,1.8-0.8  c0.1,0.1,0.1,0.3,0.1,0.4c0,0.5-0.4,1-1,1C29.9,7.7,29.6,7.4,29.4,7.1L29.4,7.1z M89.3,60.7c0.5,0,1,0.4,1,1c0,0.5-0.4,1-1,1  c-0.5,0-1-0.4-1-1C88.3,61.2,88.8,60.7,89.3,60.7z M30.3,60.7c0.5,0,1,0.4,1,1c0,0.5-0.4,1-1,1c-0.5,0-1-0.4-1-1  C29.3,61.2,29.8,60.7,30.3,60.7z M89.3,56.8c0.5,0,1,0.4,1,1c0,0.5-0.4,1-1,1c-0.5,0-1-0.4-1-1C88.3,57.2,88.8,56.8,89.3,56.8z   M30.3,56.8c0.5,0,1,0.4,1,1c0,0.5-0.4,1-1,1c-0.5,0-1-0.4-1-1C29.3,57.2,29.8,56.8,30.3,56.8z M89.3,52.9c0.5,0,1,0.4,1,1  c0,0.5-0.4,1-1,1c-0.5,0-1-0.4-1-1C88.3,53.3,88.8,52.9,89.3,52.9z M30.3,52.9c0.5,0,1,0.4,1,1c0,0.5-0.4,1-1,1c-0.5,0-1-0.4-1-1  C29.3,53.3,29.8,52.9,30.3,52.9z M89.3,48.9c0.5,0,1,0.4,1,1c0,0.5-0.4,1-1,1c-0.5,0-1-0.4-1-1C88.3,49.4,88.8,48.9,89.3,48.9z   M30.3,48.9c0.5,0,1,0.4,1,1c0,0.5-0.4,1-1,1c-0.5,0-1-0.4-1-1C29.3,49.4,29.8,48.9,30.3,48.9z M89.3,45c0.5,0,1,0.4,1,1  c0,0.5-0.4,1-1,1c-0.5,0-1-0.4-1-1C88.3,45.4,88.8,45,89.3,45z M30.3,45c0.5,0,1,0.4,1,1c0,0.5-0.4,1-1,1c-0.5,0-1-0.4-1-1  C29.3,45.4,29.8,45,30.3,45z M89.3,41.1c0.5,0,1,0.4,1,1c0,0.5-0.4,1-1,1c-0.5,0-1-0.4-1-1S88.8,41.1,89.3,41.1z M30.3,41.1  c0.5,0,1,0.4,1,1c0,0.5-0.4,1-1,1c-0.5,0-1-0.4-1-1S29.8,41.1,30.3,41.1z M89.3,37.1c0.5,0,1,0.4,1,1c0,0.5-0.4,1-1,1  c-0.5,0-1-0.4-1-1C88.3,37.6,88.8,37.1,89.3,37.1z M30.3,37.1c0.5,0,1,0.4,1,1c0,0.5-0.4,1-1,1c-0.5,0-1-0.4-1-1  C29.3,37.6,29.8,37.1,30.3,37.1z M89.3,33.2c0.5,0,1,0.4,1,1c0,0.5-0.4,1-1,1c-0.5,0-1-0.4-1-1C88.3,33.6,88.8,33.2,89.3,33.2z   M31.2,93.6c-0.6-0.3-1.2-0.5-1.8-0.8c0.2-0.3,0.5-0.6,0.9-0.6c0.5,0,1,0.4,1,1C31.3,93.3,31.3,93.5,31.2,93.6L31.2,93.6z   M30.3,33.2c0.5,0,1,0.4,1,1c0,0.5-0.4,1-1,1c-0.5,0-1-0.4-1-1C29.4,33.6,29.8,33.2,30.3,33.2z M89.3,29.3c0.5,0,1,0.4,1,1  c0,0.5-0.4,1-1,1c-0.5,0-1-0.4-1-1C88.3,29.7,88.8,29.3,89.3,29.3z M30.3,88.2c0.5,0,1,0.4,1,1c0,0.5-0.4,1-1,1c-0.5,0-1-0.4-1-1  C29.4,88.7,29.8,88.2,30.3,88.2z M30.3,29.3c0.5,0,1,0.4,1,1c0,0.5-0.4,1-1,1c-0.5,0-1-0.4-1-1C29.4,29.7,29.8,29.3,30.3,29.3z   M89.3,25.3c0.5,0,1,0.4,1,1c0,0.5-0.4,1-1,1c-0.5,0-1-0.4-1-1C88.3,25.8,88.8,25.3,89.3,25.3z M30.3,84.3c0.5,0,1,0.4,1,1  c0,0.5-0.4,1-1,1c-0.5,0-1-0.4-1-1C29.4,84.8,29.8,84.3,30.3,84.3z M30.3,25.3c0.5,0,1,0.4,1,1c0,0.5-0.4,1-1,1c-0.5,0-1-0.4-1-1  C29.4,25.8,29.8,25.3,30.3,25.3z M88.4,22c0.3,0.5,0.7,0.9,1,1.4c0,0-0.1,0-0.1,0c-0.5,0-1-0.4-1-1C88.3,22.2,88.4,22.1,88.4,22  L88.4,22z M30.3,80.4c0.5,0,1,0.4,1,1c0,0.5-0.4,1-1,1c-0.5,0-1-0.4-1-1C29.4,80.8,29.8,80.4,30.3,80.4z M30.3,21.4  c0.5,0,1,0.4,1,1c0,0.5-0.4,1-1,1c-0.5,0-1-0.4-1-1C29.4,21.8,29.8,21.4,30.3,21.4z M85.4,76.4c0.5,0,1,0.4,1,1c0,0.5-0.4,1-1,1  c-0.5,0-1-0.4-1-1C84.4,76.9,84.8,76.4,85.4,76.4z M84.8,17.6c0.4,0.5,0.9,1,1.3,1.5c-0.2,0.2-0.4,0.4-0.8,0.4c-0.5,0-1-0.4-1-1  C84.4,18.1,84.6,17.8,84.8,17.6z M26.4,76.4c0.5,0,1,0.4,1,1c0,0.5-0.4,1-1,1c-0.5,0-1-0.4-1-1C25.4,76.9,25.9,76.4,26.4,76.4z   M26.4,17.5c0.5,0,1,0.4,1,1s-0.4,1-1,1c-0.5,0-1-0.4-1-1C25.4,17.9,25.9,17.5,26.4,17.5z M85.4,72.5c0.5,0,1,0.4,1,1  c0,0.5-0.4,1-1,1c-0.5,0-1-0.4-1-1C84.4,73,84.8,72.5,85.4,72.5z M26.4,72.5c0.5,0,1,0.4,1,1c0,0.5-0.4,1-1,1c-0.5,0-1-0.4-1-1  C25.4,73,25.9,72.5,26.4,72.5z M26.4,13.5c0.5,0,1,0.4,1,1c0,0.5-0.4,1-1,1c-0.5,0-1-0.4-1-1C25.4,14,25.9,13.5,26.4,13.5z   M85.4,68.6c0.5,0,1,0.4,1,1c0,0.5-0.4,1-1,1c-0.5,0-1-0.4-1-1C84.4,69,84.8,68.6,85.4,68.6z M26.4,68.6c0.5,0,1,0.4,1,1  c0,0.5-0.4,1-1,1c-0.5,0-1-0.4-1-1C25.4,69,25.9,68.6,26.4,68.6z M26.4,9.6c0.5,0,1,0.4,1,1c0,0.5-0.4,1-1,1c-0.5,0-1-0.4-1-1  C25.4,10,25.9,9.6,26.4,9.6z M85.4,64.6c0.5,0,1,0.4,1,1c0,0.5-0.4,1-1,1c-0.5,0-1-0.4-1-1C84.4,65.1,84.8,64.6,85.4,64.6z   M26.4,64.6c0.5,0,1,0.4,1,1c0,0.5-0.4,1-1,1c-0.5,0-1-0.4-1-1C25.4,65.1,25.9,64.6,26.4,64.6z M85.4,60.7c0.5,0,1,0.4,1,1  c0,0.5-0.4,1-1,1c-0.5,0-1-0.4-1-1C84.4,61.2,84.8,60.7,85.4,60.7z M26.4,60.7c0.5,0,1,0.4,1,1c0,0.5-0.4,1-1,1c-0.5,0-1-0.4-1-1  C25.4,61.2,25.9,60.7,26.4,60.7z M85.4,56.8c0.5,0,1,0.4,1,1c0,0.5-0.4,1-1,1c-0.5,0-1-0.4-1-1C84.4,57.2,84.8,56.8,85.4,56.8z   M26.4,56.8c0.5,0,1,0.4,1,1c0,0.5-0.4,1-1,1c-0.5,0-1-0.4-1-1C25.4,57.2,25.9,56.8,26.4,56.8z M85.4,52.8c0.5,0,1,0.4,1,1  c0,0.5-0.4,1-1,1c-0.5,0-1-0.4-1-1C84.4,53.3,84.8,52.8,85.4,52.8z M26.4,52.8c0.5,0,1,0.4,1,1c0,0.5-0.4,1-1,1c-0.5,0-1-0.4-1-1  C25.4,53.3,25.9,52.8,26.4,52.8z M85.4,48.9c0.5,0,1,0.4,1,1c0,0.5-0.4,1-1,1c-0.5,0-1-0.4-1-1C84.4,49.4,84.8,48.9,85.4,48.9z   M26.4,48.9c0.5,0,1,0.4,1,1c0,0.5-0.4,1-1,1c-0.5,0-1-0.4-1-1C25.4,49.4,25.9,48.9,26.4,48.9z M85.4,45c0.5,0,1,0.4,1,1  c0,0.5-0.4,1-1,1c-0.5,0-1-0.4-1-1C84.4,45.4,84.8,45,85.4,45z M26.4,45c0.5,0,1,0.4,1,1c0,0.5-0.4,1-1,1c-0.5,0-1-0.4-1-1  C25.4,45.4,25.9,45,26.4,45z M85.4,41c0.5,0,1,0.4,1,1c0,0.5-0.4,1-1,1c-0.5,0-1-0.4-1-1S84.8,41,85.4,41z M26.4,41  c0.5,0,1,0.4,1,1c0,0.5-0.4,1-1,1c-0.5,0-1-0.4-1-1S25.9,41,26.4,41z M85.4,37.1c0.5,0,1,0.4,1,1c0,0.5-0.4,1-1,1c-0.5,0-1-0.4-1-1  C84.4,37.6,84.8,37.1,85.4,37.1z M26.4,37.1c0.5,0,1,0.4,1,1c0,0.5-0.4,1-1,1c-0.5,0-1-0.4-1-1C25.4,37.6,25.9,37.1,26.4,37.1z   M85.4,33.2c0.5,0,1,0.4,1,1c0,0.5-0.4,1-1,1c-0.5,0-1-0.4-1-1C84.4,33.6,84.8,33.2,85.4,33.2z M26.4,33.2c0.5,0,1,0.4,1,1  c0,0.5-0.4,1-1,1c-0.5,0-1-0.4-1-1C25.4,33.6,25.9,33.2,26.4,33.2z M85.4,29.2c0.5,0,1,0.4,1,1c0,0.5-0.4,1-1,1c-0.5,0-1-0.4-1-1  C84.4,29.7,84.8,29.2,85.4,29.2z M26.4,88.2c0.5,0,1,0.4,1,1c0,0.5-0.4,1-1,1c-0.5,0-1-0.4-1-1C25.4,88.7,25.9,88.2,26.4,88.2z   M26.4,29.2c0.5,0,1,0.4,1,1c0,0.5-0.4,1-1,1c-0.5,0-1-0.4-1-1C25.4,29.7,25.9,29.2,26.4,29.2z M85.4,25.3c0.5,0,1,0.4,1,1  c0,0.5-0.4,1-1,1c-0.5,0-1-0.4-1-1C84.4,25.8,84.8,25.3,85.4,25.3z M26.4,84.3c0.5,0,1,0.4,1,1c0,0.5-0.4,1-1,1c-0.5,0-1-0.4-1-1  C25.4,84.7,25.9,84.3,26.4,84.3z M26.4,25.3c0.5,0,1,0.4,1,1c0,0.5-0.4,1-1,1c-0.5,0-1-0.4-1-1C25.4,25.8,25.9,25.3,26.4,25.3z   M86.1,80.7c-0.4,0.5-0.8,1-1.3,1.5c-0.3-0.2-0.4-0.5-0.4-0.8c0-0.5,0.4-1,1-1C85.7,80.4,86,80.5,86.1,80.7z M85.4,21.4  c0.5,0,1,0.4,1,1c0,0.5-0.4,1-1,1c-0.5,0-1-0.4-1-1C84.4,21.8,84.8,21.4,85.4,21.4z M26.4,80.4c0.5,0,1,0.4,1,1c0,0.5-0.4,1-1,1  c-0.5,0-1-0.4-1-1C25.4,80.8,25.9,80.4,26.4,80.4z M26.4,21.4c0.5,0,1,0.4,1,1c0,0.5-0.4,1-1,1c-0.5,0-1-0.4-1-1  C25.4,21.8,25.9,21.4,26.4,21.4z M81.5,76.4c0.5,0,1,0.4,1,1c0,0.5-0.4,1-1,1c-0.5,0-1-0.4-1-1C80.5,76.9,80.9,76.4,81.5,76.4z   M81.5,17.4c0.5,0,1,0.4,1,1s-0.4,1-1,1c-0.5,0-1-0.4-1-1C80.5,17.9,80.9,17.4,81.5,17.4z M22.5,76.4c0.5,0,1,0.4,1,1  c0,0.5-0.4,1-1,1c-0.5,0-1-0.4-1-1C21.5,76.9,21.9,76.4,22.5,76.4z M22.5,17.4c0.5,0,1,0.4,1,1s-0.4,1-1,1c-0.5,0-1-0.4-1-1  C21.5,17.9,21.9,17.4,22.5,17.4z M81.5,72.5c0.5,0,1,0.4,1,1c0,0.5-0.4,1-1,1c-0.5,0-1-0.4-1-1C80.5,72.9,80.9,72.5,81.5,72.5z   M80.8,13.8c0.5,0.4,1,0.8,1.5,1.3c-0.2,0.3-0.5,0.4-0.8,0.4c-0.5,0-1-0.4-1-1C80.5,14.2,80.6,13.9,80.8,13.8z M22.5,72.5  c0.5,0,1,0.4,1,1c0,0.5-0.4,1-1,1s-1-0.4-1-1C21.5,72.9,21.9,72.5,22.5,72.5z M22.5,13.5c0.5,0,1,0.4,1,1c0,0.5-0.4,1-1,1  s-1-0.4-1-1C21.5,14,21.9,13.5,22.5,13.5z M81.5,68.6c0.5,0,1,0.4,1,1c0,0.5-0.4,1-1,1c-0.5,0-1-0.4-1-1  C80.5,69,80.9,68.6,81.5,68.6z M22.5,68.6c0.5,0,1,0.4,1,1c0,0.5-0.4,1-1,1c-0.5,0-1-0.4-1-1C21.5,69,21.9,68.6,22.5,68.6z   M22.1,11.5c0.5-0.3,0.9-0.7,1.4-1c0,0,0,0.1,0,0.1c0,0.5-0.4,1-1,1C22.3,11.6,22.2,11.5,22.1,11.5L22.1,11.5z M81.5,64.6  c0.5,0,1,0.4,1,1c0,0.5-0.4,1-1,1c-0.5,0-1-0.4-1-1C80.5,65.1,80.9,64.6,81.5,64.6z M22.5,64.6c0.5,0,1,0.4,1,1c0,0.5-0.4,1-1,1  c-0.5,0-1-0.4-1-1C21.5,65.1,21.9,64.6,22.5,64.6z M81.5,60.7c0.5,0,1,0.4,1,1c0,0.5-0.4,1-1,1c-0.5,0-1-0.4-1-1  C80.5,61.1,80.9,60.7,81.5,60.7z M22.5,60.7c0.5,0,1,0.4,1,1c0,0.5-0.4,1-1,1c-0.5,0-1-0.4-1-1C21.5,61.1,21.9,60.7,22.5,60.7z   M81.5,56.8c0.5,0,1,0.4,1,1c0,0.5-0.4,1-1,1c-0.5,0-1-0.4-1-1C80.5,57.2,80.9,56.8,81.5,56.8z M22.5,56.8c0.5,0,1,0.4,1,1  c0,0.5-0.4,1-1,1c-0.5,0-1-0.4-1-1C21.5,57.2,21.9,56.8,22.5,56.8z M81.5,52.8c0.5,0,1,0.4,1,1c0,0.5-0.4,1-1,1c-0.5,0-1-0.4-1-1  C80.5,53.3,80.9,52.8,81.5,52.8z M22.5,52.8c0.5,0,1,0.4,1,1c0,0.5-0.4,1-1,1c-0.5,0-1-0.4-1-1C21.5,53.3,21.9,52.8,22.5,52.8z   M81.5,48.9c0.5,0,1,0.4,1,1c0,0.5-0.4,1-1,1c-0.5,0-1-0.4-1-1C80.5,49.3,80.9,48.9,81.5,48.9z M22.5,48.9c0.5,0,1,0.4,1,1  c0,0.5-0.4,1-1,1c-0.5,0-1-0.4-1-1C21.5,49.3,21.9,48.9,22.5,48.9z M81.5,45c0.5,0,1,0.4,1,1c0,0.5-0.4,1-1,1c-0.5,0-1-0.4-1-1  C80.5,45.4,80.9,45,81.5,45z M22.5,45c0.5,0,1,0.4,1,1c0,0.5-0.4,1-1,1c-0.5,0-1-0.4-1-1C21.5,45.4,21.9,45,22.5,45z M81.5,41  c0.5,0,1,0.4,1,1c0,0.5-0.4,1-1,1c-0.5,0-1-0.4-1-1S80.9,41,81.5,41z M22.5,41c0.5,0,1,0.4,1,1c0,0.5-0.4,1-1,1c-0.5,0-1-0.4-1-1  S21.9,41,22.5,41z M81.5,37.1c0.5,0,1,0.4,1,1c0,0.5-0.4,1-1,1c-0.5,0-1-0.4-1-1C80.5,37.5,80.9,37.1,81.5,37.1z M22.5,37.1  c0.5,0,1,0.4,1,1c0,0.5-0.4,1-1,1c-0.5,0-1-0.4-1-1C21.5,37.5,21.9,37.1,22.5,37.1z M81.5,33.2c0.5,0,1,0.4,1,1c0,0.5-0.4,1-1,1  c-0.5,0-1-0.4-1-1C80.5,33.6,80.9,33.2,81.5,33.2z M22.5,33.2c0.5,0,1,0.4,1,1c0,0.5-0.4,1-1,1c-0.5,0-1-0.4-1-1  C21.5,33.6,21.9,33.2,22.5,33.2z M81.5,29.2c0.5,0,1,0.4,1,1c0,0.5-0.4,1-1,1c-0.5,0-1-0.4-1-1C80.5,29.7,80.9,29.2,81.5,29.2z   M23.5,89.3c-0.5-0.3-0.9-0.6-1.4-1c0.1-0.1,0.3-0.1,0.4-0.1C23,88.2,23.5,88.6,23.5,89.3C23.5,89.2,23.5,89.2,23.5,89.3L23.5,89.3  z M22.5,29.2c0.5,0,1,0.4,1,1c0,0.5-0.4,1-1,1s-1-0.4-1-1C21.5,29.7,21.9,29.2,22.5,29.2z M82.3,84.7c-0.5,0.4-1,0.9-1.5,1.3  c-0.2-0.2-0.4-0.4-0.4-0.8c0-0.5,0.4-1,1-1C81.8,84.3,82.1,84.5,82.3,84.7z M81.5,25.3c0.5,0,1,0.4,1,1c0,0.5-0.4,1-1,1  c-0.5,0-1-0.4-1-1C80.5,25.7,80.9,25.3,81.5,25.3z M22.5,84.3c0.5,0,1,0.4,1,1c0,0.5-0.4,1-1,1c-0.5,0-1-0.4-1-1  C21.5,84.7,21.9,84.3,22.5,84.3z M22.5,25.3c0.5,0,1,0.4,1,1c0,0.5-0.4,1-1,1c-0.5,0-1-0.4-1-1C21.5,25.7,21.9,25.3,22.5,25.3z   M81.5,80.3c0.5,0,1,0.4,1,1c0,0.5-0.4,1-1,1c-0.5,0-1-0.4-1-1C80.5,80.8,80.9,80.3,81.5,80.3z M81.5,21.4c0.5,0,1,0.4,1,1  c0,0.5-0.4,1-1,1c-0.5,0-1-0.4-1-1C80.5,21.8,80.9,21.4,81.5,21.4z M22.5,80.3c0.5,0,1,0.4,1,1c0,0.5-0.4,1-1,1c-0.5,0-1-0.4-1-1  C21.5,80.8,21.9,80.3,22.5,80.3z" fill="#666666"></path></g></svg>